<svg xmlns="http://www.w3.org/2000/svg" viewBox="0 0 96 96" role="img" aria-label="OCOP region star marker">
  <defs>
    <linearGradient id="red-bg" x1="18" y1="10" x2="78" y2="88" gradientUnits="userSpaceOnUse">
      <stop stop-color="#EF4444"/>
      <stop offset="1" stop-color="#B91C1C"/>
    </linearGradient>
    <filter id="shadow" x="12" y="10" width="72" height="76" color-interpolation-filters="sRGB" filterUnits="userSpaceOnUse">
      <feDropShadow dx="0" dy="5" stdDeviation="4" flood-color="#7F1D1D" flood-opacity=".28"/>
    </filter>
  </defs>
  <circle cx="48" cy="48" r="44" fill="#FFF7ED"/>
  <path d="M48 10c-17.6 0-32 14.1-32 31.4C16 63.2 48 86 48 86s32-22.8 32-44.6C80 24.1 65.6 10 48 10Z" fill="url(#red-bg)" filter="url(#shadow)"/>
  <circle cx="48" cy="41" r="23" fill="#DC2626"/>
  <path d="M48 20.5 54.2 34l14.7 1.7-10.9 10 2.9 14.5L48 52.9l-12.9 7.3L38 45.7l-10.9-10L41.8 34 48 20.5Z" fill="#FDE047"/>
  <path d="M36 66c6.8-3 17.2-3 24 0" fill="none" stroke="#FDE68A" stroke-width="4" stroke-linecap="round"/>
</svg>
